<?xml version="1.0" encoding="utf-8"?>
<svg viewBox="0 0 340 260" xmlns="http://www.w3.org/2000/svg">
  <g transform="matrix(0.9912869334220885, 0, 0, 0.9992620348930358, -14.405802726745609, -13.716870307922363)">
    <rect style="fill-rule: nonzero; stroke: rgb(255, 255, 255); stroke-width: 0px; fill: rgb(230, 230, 230); transform-origin: 251.826px 205.425px;" transform="matrix(0.985986, -0.166827, 0.164416, 0.986394, -63.927027, -123.853593)" x="111.287" y="192.512" width="281.077" height="25.826" rx="12.015" ry="12.015"/>
    <rect style="fill-rule: nonzero; stroke: rgb(255, 255, 255); stroke-width: 0px; fill: rgb(230, 230, 230); transform-origin: 183.734px 205.425px;" transform="matrix(0.985986, -0.166827, 0.164416, 0.986394, 25.09495, -102.378974)" x="81.196" y="192.512" width="205.077" height="25.826" rx="12.015" ry="12.015"/>
    <rect style="fill-rule: nonzero; stroke: rgb(255, 255, 255); stroke-width: 0px; fill: rgb(230, 230, 230); transform-origin: 233.847px 205.425px;" transform="matrix(0.985986, -0.166827, 0.164416, 0.986394, -88.514386, -142.044601)" x="103.341" y="192.512" width="261.01" height="25.826" rx="12.015" ry="12.015"/>
    <rect style="fill-rule: nonzero; stroke: rgb(255, 255, 255); stroke-width: 0px; fill: rgb(230, 230, 230); transform-origin: 293.722px 205.425px;" transform="matrix(0.985986, -0.166827, 0.164416, 0.986394, -99.946111, -14.149463)" x="129.802" y="192.512" width="327.839" height="25.826" rx="12.015" ry="12.015"/>
    <rect style="fill-rule: nonzero; stroke: rgb(255, 255, 255); stroke-width: 0px; fill: rgb(230, 230, 230); transform-origin: 230.511px 205.425px;" transform="matrix(0.985986, -0.166827, 0.164416, 0.986394, -36.575721, 10.839559)" x="101.867" y="192.512" width="257.287" height="25.826" rx="12.015" ry="12.015"/>
    <rect style="fill-rule: nonzero; stroke: rgb(255, 255, 255); stroke-width: 0px; fill: rgb(230, 230, 230); transform-origin: 233.847px 205.425px;" transform="matrix(0.985986, -0.166827, 0.164416, 0.986394, -59.583989, -36.241093)" x="103.341" y="192.512" width="261.01" height="25.826" rx="12.015" ry="12.015"/>
    <path d="M 277.832 76.239 L 277.832 265.059 C 277.832 269.951 273.864 273.919 268.972 273.919 L 98.872 273.919 C 93.979 273.919 90.012 269.951 90.012 265.059 L 90.012 29.879 C 90.012 24.987 93.977 21.019 98.872 21.019 L 222.616 21.019 C 224.965 21.019 227.218 21.952 228.882 23.613 L 275.241 69.972 C 276.899 71.633 277.832 73.887 277.832 76.239 Z" style="stroke: none; stroke-width: 1; stroke-dasharray: none; stroke-linecap: butt; stroke-linejoin: miter; stroke-miterlimit: 10; fill-rule: nonzero; opacity: 1; fill: rgb(200, 200, 200);" stroke-linecap="round"/>
    <path d="M 270.711 68.946 L 270.711 257.767 C 270.711 262.659 266.743 266.627 261.851 266.627 L 91.751 266.627 C 86.859 266.627 82.891 262.659 82.891 257.767 L 82.891 22.587 C 82.891 17.695 86.856 13.727 91.751 13.727 L 215.495 13.727 C 217.844 13.727 220.097 14.66 221.761 16.321 L 268.12 62.68 C 269.778 64.341 270.711 66.594 270.711 68.946 Z" style="stroke: none; stroke-width: 1; stroke-dasharray: none; stroke-linecap: butt; stroke-linejoin: miter; stroke-miterlimit: 10; fill: rgb(220,223,225); fill-rule: nonzero; opacity: 1;" stroke-linecap="round"/>
    <path d="M 270.711 65.276 L 227.235 65.276 C 222.775 65.276 219.162 61.663 219.162 57.203 L 219.162 13.727" style="stroke: none; stroke-width: 1; stroke-dasharray: none; stroke-linecap: butt; stroke-linejoin: miter; stroke-miterlimit: 10; fill: rgb(171,178,184); fill-rule: nonzero; opacity: 1;" stroke-linecap="round"/>
    <g transform="matrix(2.81, 0, 0, 2.81, 48.534809, 14.406067)" style="stroke: none; stroke-width: 0; stroke-dasharray: none; stroke-linecap: butt; stroke-linejoin: miter; stroke-miterlimit: 10; fill: none; fill-rule: nonzero; opacity: 1;">
      <path d="M 67.477 67.368 L 25.059 67.368 C 24.507 67.368 24.059 66.921 24.059 66.368 C 24.059 65.815 24.507 65.368 25.059 65.368 L 67.477 65.368 C 68.03 65.368 68.477 65.815 68.477 66.368 C 68.477 66.921 68.03 67.368 67.477 67.368 Z" style="stroke: none; stroke-width: 1; stroke-dasharray: none; stroke-linecap: butt; stroke-linejoin: miter; stroke-miterlimit: 10; fill-rule: nonzero; opacity: 1; fill: rgb(172, 172, 172);" stroke-linecap="round"/>
      <path d="M 47.92 78.45 L 24.609 78.45 C 24.305 78.45 24.059 78.003 24.059 77.45 C 24.059 76.897 24.305 76.45 24.609 76.45 L 47.92 76.45 C 48.225 76.45 48.471 76.897 48.471 77.45 C 48.471 78.003 48.225 78.45 47.92 78.45 Z" style="stroke: none; stroke-width: 1; stroke-dasharray: none; stroke-linecap: butt; stroke-linejoin: miter; stroke-miterlimit: 10; fill-rule: nonzero; opacity: 1; fill: rgb(172, 172, 172);" stroke-linecap="round"/>
      <path d="M 53.459 61.827 L 24.736 61.827 C 24.362 61.827 24.059 61.38 24.059 60.827 C 24.059 60.274 24.362 59.827 24.736 59.827 L 53.459 59.827 C 53.833 59.827 54.136 60.274 54.136 60.827 C 54.136 61.38 53.833 61.827 53.459 61.827 Z" style="stroke: none; stroke-width: 1; stroke-dasharray: none; stroke-linecap: butt; stroke-linejoin: miter; stroke-miterlimit: 10; fill-rule: nonzero; opacity: 1; fill: rgb(172, 172, 172);" stroke-linecap="round"/>
      <path d="M 58.371 72.909 L 24.849 72.909 C 24.413 72.909 24.059 72.462 24.059 71.909 C 24.059 71.356 24.413 70.909 24.849 70.909 L 58.371 70.909 C 58.808 70.909 59.161 71.356 59.161 71.909 C 59.161 72.462 58.808 72.909 58.371 72.909 Z" style="stroke: none; stroke-width: 1; stroke-dasharray: none; stroke-linecap: butt; stroke-linejoin: miter; stroke-miterlimit: 10; fill-rule: nonzero; opacity: 1; fill: rgb(172, 172, 172);" stroke-linecap="round"/>
      <path d="M 61.849 56.286 L 24.929 56.286 C 24.449 56.286 24.059 55.839 24.059 55.286 C 24.059 54.733 24.449 54.286 24.929 54.286 L 61.849 54.286 C 62.33 54.286 62.719 54.733 62.719 55.286 C 62.719 55.839 62.33 56.286 61.849 56.286 Z" style="stroke: none; stroke-width: 1; stroke-dasharray: none; stroke-linecap: butt; stroke-linejoin: miter; stroke-miterlimit: 10; fill-rule: nonzero; opacity: 1; fill: rgb(172, 172, 172);" stroke-linecap="round"/>
      <path d="M 59.387 83.993 L 24.873 83.993 C 24.424 83.993 24.059 83.546 24.059 82.993 C 24.059 82.44 24.424 81.993 24.873 81.993 L 59.387 81.993 C 59.837 81.993 60.201 82.44 60.201 82.993 C 60.201 83.546 59.837 83.993 59.387 83.993 Z" style="stroke: none; stroke-width: 1; stroke-dasharray: none; stroke-linecap: butt; stroke-linejoin: miter; stroke-miterlimit: 10; fill-rule: nonzero; opacity: 1; fill: rgb(172, 172, 172);" stroke-linecap="round"/>
    </g>
    <text style="fill: rgb(172, 172, 172); font-family: Consolas; font-size: 34px; font-weight: 700; stroke-miterlimit: 10; stroke-width: 0px; white-space: pre;" x="114.293" y="147.365">Kubelog</text>
    <g transform="matrix(2.81, 0, 0, 2.81, 46.879719, -88.482063)" style="stroke: none; stroke-width: 0; stroke-dasharray: none; stroke-linecap: butt; stroke-linejoin: miter; stroke-miterlimit: 10; fill: none; fill-rule: nonzero; opacity: 1;">
      <g>
        <path d="M 68.066 63.467 L 25.648 63.467 C 25.096 63.467 24.648 63.02 24.648 62.467 C 24.648 61.914 25.096 61.467 25.648 61.467 L 68.066 61.467 C 68.619 61.467 69.066 61.914 69.066 62.467 C 69.066 63.02 68.619 63.467 68.066 63.467 Z" style="stroke: none; stroke-width: 1; stroke-dasharray: none; stroke-linecap: butt; stroke-linejoin: miter; stroke-miterlimit: 10; fill-rule: nonzero; opacity: 1; fill: rgb(172, 172, 172);" stroke-linecap="round"/>
        <path d="M 54.048 57.926 L 25.325 57.926 C 24.951 57.926 24.648 57.479 24.648 56.926 C 24.648 56.373 24.951 55.926 25.325 55.926 L 54.048 55.926 C 54.422 55.926 54.725 56.373 54.725 56.926 C 54.725 57.479 54.422 57.926 54.048 57.926 Z" style="stroke: none; stroke-width: 1; stroke-dasharray: none; stroke-linecap: butt; stroke-linejoin: miter; stroke-miterlimit: 10; fill-rule: nonzero; opacity: 1; fill: rgb(172, 172, 172);" stroke-linecap="round"/>
        <path d="M 58.96 69.008 L 25.438 69.008 C 25.002 69.008 24.648 68.561 24.648 68.008 C 24.648 67.455 25.002 67.008 25.438 67.008 L 58.96 67.008 C 59.397 67.008 59.75 67.455 59.75 68.008 C 59.75 68.561 59.397 69.008 58.96 69.008 Z" style="stroke: none; stroke-width: 1; stroke-dasharray: none; stroke-linecap: butt; stroke-linejoin: miter; stroke-miterlimit: 10; fill-rule: nonzero; opacity: 1; fill: rgb(172, 172, 172);" stroke-linecap="round"/>
        <path d="M 50.623 52.385 L 25.246 52.385 C 24.916 52.385 24.648 51.938 24.648 51.385 C 24.648 50.832 24.916 50.385 25.246 50.385 L 50.623 50.385 C 50.953 50.385 51.221 50.832 51.221 51.385 C 51.221 51.938 50.953 52.385 50.623 52.385 Z" style="stroke: none; stroke-width: 1; stroke-dasharray: none; stroke-linecap: butt; stroke-linejoin: miter; stroke-miterlimit: 10; fill-rule: nonzero; opacity: 1; fill: rgb(172, 172, 172);" stroke-linecap="round"/>
        <path d="M 56.366 45.86 L 25.378 45.86 C 24.975 45.86 24.648 45.413 24.648 44.86 C 24.648 44.307 24.975 43.86 25.378 43.86 L 56.366 43.86 C 56.77 43.86 57.097 44.307 57.097 44.86 C 57.097 45.413 56.77 45.86 56.366 45.86 Z" style="stroke: none; stroke-width: 1; stroke-dasharray: none; stroke-linecap: butt; stroke-linejoin: miter; stroke-miterlimit: 10; fill-rule: nonzero; opacity: 1; fill: rgb(172, 172, 172);" stroke-linecap="round"/>
      </g>
    </g>
  </g>
</svg>
